<svg width={125} height={125} viewBox="0 0 125 125" fill="none" xmlns="http://www.w3.org/2000/svg">
  <circle cx="62.5" cy="62.5" r="62.5" fill="#3882C4" />
  <path d="M86.1502 79.2968C89.9055 75.9499 92.0319 71.4888 92.0319 66.8594C92.0319 61.9395 89.7287 57.3383 85.5464 53.9026C81.476 50.5599 76.0883 48.7188 70.375 48.7188C64.6617 48.7188 59.274 50.5599 55.2042 53.9028C51.0219 57.3383 48.7188 61.9395 48.7188 66.8594C48.7188 71.7793 51.0219 76.3805 55.2042 79.8163C59.274 83.1592 64.6617 85.0002 70.375 85.0002C71.1363 85.0002 71.9023 84.9666 72.6618 84.8998L73.9595 86.0246C78.43 89.8985 84.1471 92.031 90.0625 92.0312H92.0312V87.8406L91.4547 87.2642C89.18 84.9828 87.3775 82.2754 86.1502 79.2968ZM76.5383 83.0488L73.9345 80.792L73.0663 80.8985C72.1733 81.0077 71.2746 81.0624 70.375 81.0625C60.6051 81.0625 52.6562 74.691 52.6562 66.8594C52.6562 59.0279 60.6051 52.6562 70.375 52.6562C80.1449 52.6562 88.0937 59.0277 88.0937 66.8594C88.0937 70.7612 86.1471 74.4039 82.6125 77.1164L81.4786 77.9864L82.0018 79.4673C83.074 82.4918 84.65 85.3131 86.6631 87.812C82.9141 87.1862 79.4106 85.538 76.5383 83.0488Z" fill="white" />
  <path d="M38.4056 70.0644C40.2485 67.7316 41.6954 65.1118 42.6886 62.3096L43.2078 60.8362L42.075 59.9667C38.7419 57.4091 36.9062 53.9763 36.9062 50.3008C36.9062 42.915 44.4132 36.9062 53.6406 36.9062C60.4289 36.9062 66.2858 40.1584 68.9079 44.8182C69.3948 44.7945 69.8838 44.7812 70.375 44.7812C71.3616 44.7812 72.3392 44.8291 73.3077 44.9248C72.2944 42.2996 70.5346 39.9032 68.1151 37.916C64.2315 34.7257 59.0916 32.9688 53.6406 32.9688C48.1896 32.9688 43.0497 34.7257 39.1659 37.916C35.1696 41.1987 32.9688 45.597 32.9688 50.3008C32.9688 54.7058 34.9808 58.9503 38.5366 62.1432C37.3762 64.9357 35.6806 67.4742 33.5455 69.6157L32.9688 70.1923V74.3125H34.9375C38.5781 74.312 42.1686 73.4642 45.4249 71.8362C45.0678 70.4828 44.8586 69.0947 44.8009 67.6963C42.8245 68.8546 40.6597 69.6562 38.4056 70.0644Z" fill="white" />
</svg>
