<svg width={105} height={105} viewBox="0 0 125 125" fill="none" xmlns="http://www.w3.org/2000/svg">
  <circle cx="62.5" cy="62.5" r="62.5" fill="#3882C4" />
  <path d="M50.4467 59.6262C53.8067 66.3475 59.22 71.8337 65.8233 75.2775L70.9567 70.0525C71.5867 69.4113 72.52 69.1975 73.3367 69.4825C75.95 70.3612 78.7733 70.8363 81.6667 70.8363C82.95 70.8363 84 71.905 84 73.2113V81.5C84 82.8063 82.95 83.875 81.6667 83.875C59.7567 83.875 42 65.8013 42 43.5C42 42.1938 43.05 41.125 44.3333 41.125H52.5C53.7833 41.125 54.8333 42.1938 54.8333 43.5C54.8333 46.4688 55.3 49.3188 56.1633 51.9788C56.42 52.81 56.2333 53.7362 55.58 54.4013L50.4467 59.6262Z" fill="white" />
</svg>
