<svg width={125} height={125} viewBox="0 0 125 125" fill="none" xmlns="http://www.w3.org/2000/svg">
  <circle cx="62.5" cy="62.5" r="62.5" fill="#3882C4" />
  <path d="M71.8813 86.25L61.7875 76.1563L65.1125 72.8313L71.8813 79.6L85.3 66.1813L88.625 69.5063L71.8813 86.25ZM62.5 60.125L81.5 48.25H43.5L62.5 60.125ZM62.5 64.875L43.5 53V76.75H55.7313L60.4813 81.5H43.5C42.1938 81.5 41.0751 81.0345 40.1441 80.1035C39.2131 79.1725 38.7484 78.0547 38.75 76.75V48.25C38.75 46.9438 39.2155 45.8251 40.1465 44.8941C41.0775 43.9631 42.1953 43.4984 43.5 43.5H81.5C82.8063 43.5 83.9249 43.9655 84.8559 44.8965C85.7869 45.8275 86.2516 46.9453 86.25 48.25V58.5813L81.5 63.3313V53L62.5 64.875Z" fill="white" />
</svg>
