<svg width={81} height={81} viewBox="0 0 81 81" fill="none" xmlns="http://www.w3.org/2000/svg">
  <path d="M55.4997 48.25H26.4997L16.833 57.9167V19.25C16.833 18.6091 17.0876 17.9944 17.5408 17.5412C17.994 17.088 18.6087 16.8333 19.2497 16.8333H55.4997C56.1406 16.8333 56.7553 17.088 57.2085 17.5412C57.6617 17.9944 57.9163 18.6091 57.9163 19.25V45.8333C57.9163 46.4743 57.6617 47.089 57.2085 47.5422C56.7553 47.9954 56.1406 48.25 55.4997 48.25ZM67.583 33.75V67.5833L57.9163 57.9167H31.333C30.6921 57.9167 30.0774 57.6621 29.6242 57.2089C29.171 56.7556 28.9163 56.141 28.9163 55.5V53.0833H62.7497V31.3333H65.1663C65.8073 31.3333 66.422 31.588 66.8752 32.0412C67.3284 32.4944 67.583 33.1091 67.583 33.75ZM31.7922 21.6667C29.6897 21.6667 27.998 22.15 26.693 23.0925C25.4363 24.0833 24.808 25.4608 24.8322 27.37L24.8563 27.4425H29.5205C29.5447 26.7175 29.7622 26.1617 30.1972 25.775C30.6447 25.4039 31.211 25.2066 31.7922 25.2192C32.5413 25.2192 33.1697 25.4608 33.6047 25.8958C34.0397 26.355 34.233 26.9833 34.233 27.7083C34.233 28.4817 34.0638 29.1342 33.6772 29.69C33.3388 30.2458 32.8313 30.7292 32.203 31.1158C30.9705 31.9375 30.1247 32.6625 29.6655 33.315C29.1822 33.9433 28.9163 34.9583 28.9163 36.1667H33.7497C33.7497 35.4175 33.8463 34.8133 34.0638 34.3783C34.2813 33.9433 34.6922 33.5083 35.2963 33.1217C36.3838 32.5417 37.278 31.8408 37.9788 30.8742C38.6797 29.9075 39.0422 28.9167 39.0422 27.7083C39.0422 25.8717 38.3897 24.3975 37.0847 23.31C35.8038 22.2225 34.0397 21.6667 31.7922 21.6667ZM28.9163 38.5833V43.4167H33.7497V38.5833H28.9163ZM43.4163 43.4167H48.2497V38.5833H43.4163V43.4167ZM43.4163 21.6667V36.1667H48.2497V21.6667H43.4163Z" fill="#3882C4" />
</svg>

